<?xml version="1.0" encoding="UTF-8" standalone="no"?>
<!DOCTYPE svg PUBLIC "-//W3C//DTD SVG 1.1//EN"
 "http://www.w3.org/Graphics/SVG/1.1/DTD/svg11.dtd">
<!-- Generated by graphviz version 2.43.0 (0)
 -->
<!-- Title: G Pages: 1 -->
<svg width="1575pt" height="184pt"
 viewBox="0.00 0.00 1575.00 184.00" xmlns="http://www.w3.org/2000/svg" xmlns:xlink="http://www.w3.org/1999/xlink">
<g id="graph0" class="graph" transform="scale(1 1) rotate(0) translate(4 180)">
<title>G</title>
<polygon fill="#ffd480" stroke="transparent" points="-4,4 -4,-180 1571,-180 1571,4 -4,4"/>
<text text-anchor="middle" x="783.5" y="-148" font-family="Verdana" font-size="30.00" fill="#ffffff">List</text>
<!-- node_0x503000000040 -->
<g id="node1" class="node">
<title>node_0x503000000040</title>
<path fill="#ff6699" stroke="#ffe9c7" d="M12,-0.5C12,-0.5 353,-0.5 353,-0.5 359,-0.5 365,-6.5 365,-12.5 365,-12.5 365,-80.5 365,-80.5 365,-86.5 359,-92.5 353,-92.5 353,-92.5 12,-92.5 12,-92.5 6,-92.5 0,-86.5 0,-80.5 0,-80.5 0,-12.5 0,-12.5 0,-6.5 6,-0.5 12,-0.5"/>
<text text-anchor="middle" x="182.5" y="-77.3" font-family="Times,serif" font-size="14.00">Phantom</text>
<polyline fill="none" stroke="#ffe9c7" points="0,-69.5 365,-69.5 "/>
<text text-anchor="middle" x="182.5" y="-54.3" font-family="Times,serif" font-size="14.00">data: BADBABA</text>
<polyline fill="none" stroke="#ffe9c7" points="0,-46.5 365,-46.5 "/>
<text text-anchor="middle" x="182.5" y="-31.3" font-family="Times,serif" font-size="14.00">curr: 0x503000000040</text>
<polyline fill="none" stroke="#ffe9c7" points="0,-23.5 365,-23.5 "/>
<text text-anchor="middle" x="91.5" y="-8.3" font-family="Times,serif" font-size="14.00">prev: 0x5030000000d0</text>
<polyline fill="none" stroke="#ffe9c7" points="183,-0.5 183,-23.5 "/>
<text text-anchor="middle" x="274" y="-8.3" font-family="Times,serif" font-size="14.00">next: 0x503000000070</text>
</g>
<!-- node_0x503000000070 -->
<g id="node2" class="node">
<title>node_0x503000000070</title>
<path fill="#9966ff" stroke="#ffe9c7" d="M413,-42.5C413,-42.5 754,-42.5 754,-42.5 760,-42.5 766,-48.5 766,-54.5 766,-54.5 766,-122.5 766,-122.5 766,-128.5 760,-134.5 754,-134.5 754,-134.5 413,-134.5 413,-134.5 407,-134.5 401,-128.5 401,-122.5 401,-122.5 401,-54.5 401,-54.5 401,-48.5 407,-42.5 413,-42.5"/>
<text text-anchor="middle" x="583.5" y="-119.3" font-family="Times,serif" font-size="14.00">num: 0</text>
<polyline fill="none" stroke="#ffe9c7" points="401,-111.5 766,-111.5 "/>
<text text-anchor="middle" x="583.5" y="-96.3" font-family="Times,serif" font-size="14.00">data: 11.00</text>
<polyline fill="none" stroke="#ffe9c7" points="401,-88.5 766,-88.5 "/>
<text text-anchor="middle" x="583.5" y="-73.3" font-family="Times,serif" font-size="14.00">curr: 0x503000000070</text>
<polyline fill="none" stroke="#ffe9c7" points="401,-65.5 766,-65.5 "/>
<text text-anchor="middle" x="492.5" y="-50.3" font-family="Times,serif" font-size="14.00">prev: 0x503000000040</text>
<polyline fill="none" stroke="#ffe9c7" points="584,-42.5 584,-65.5 "/>
<text text-anchor="middle" x="675" y="-50.3" font-family="Times,serif" font-size="14.00">next: 0x5030000000a0</text>
</g>
<!-- node_0x503000000040&#45;&gt;node_0x503000000070 -->
<g id="edge1" class="edge">
<title>node_0x503000000040&#45;&gt;node_0x503000000070</title>
<path fill="none" stroke="#ff6699" d="M365.11,-59C365.11,-59 390.85,-59 390.85,-59"/>
<polygon fill="#ff6699" stroke="#ff6699" points="390.85,-62.5 400.85,-59 390.85,-55.5 390.85,-62.5"/>
</g>
<!-- node_0x5030000000d0 -->
<g id="node4" class="node">
<title>node_0x5030000000d0</title>
<path fill="#9966ff" stroke="#ffe9c7" d="M1215,-0.5C1215,-0.5 1555,-0.5 1555,-0.5 1561,-0.5 1567,-6.5 1567,-12.5 1567,-12.5 1567,-80.5 1567,-80.5 1567,-86.5 1561,-92.5 1555,-92.5 1555,-92.5 1215,-92.5 1215,-92.5 1209,-92.5 1203,-86.5 1203,-80.5 1203,-80.5 1203,-12.5 1203,-12.5 1203,-6.5 1209,-0.5 1215,-0.5"/>
<text text-anchor="middle" x="1385" y="-77.3" font-family="Times,serif" font-size="14.00">num: 2</text>
<polyline fill="none" stroke="#ffe9c7" points="1203,-69.5 1567,-69.5 "/>
<text text-anchor="middle" x="1385" y="-54.3" font-family="Times,serif" font-size="14.00">data: 33.00</text>
<polyline fill="none" stroke="#ffe9c7" points="1203,-46.5 1567,-46.5 "/>
<text text-anchor="middle" x="1385" y="-31.3" font-family="Times,serif" font-size="14.00">curr: 0x5030000000d0</text>
<polyline fill="none" stroke="#ffe9c7" points="1203,-23.5 1567,-23.5 "/>
<text text-anchor="middle" x="1294" y="-8.3" font-family="Times,serif" font-size="14.00">prev: 0x5030000000a0</text>
<polyline fill="none" stroke="#ffe9c7" points="1385,-0.5 1385,-23.5 "/>
<text text-anchor="middle" x="1476" y="-8.3" font-family="Times,serif" font-size="14.00">next: 0x503000000040</text>
</g>
<!-- node_0x503000000040&#45;&gt;node_0x5030000000d0 -->
<g id="edge2" class="edge">
<title>node_0x503000000040&#45;&gt;node_0x5030000000d0</title>
<path fill="none" stroke="#34cb34" d="M365.13,-14C365.13,-14 1192.62,-14 1192.62,-14"/>
<polygon fill="#34cb34" stroke="#34cb34" points="1192.62,-17.5 1202.62,-14 1192.62,-10.5 1192.62,-17.5"/>
</g>
<!-- node_0x503000000070&#45;&gt;node_0x503000000040 -->
<g id="edge4" class="edge">
<title>node_0x503000000070&#45;&gt;node_0x503000000040</title>
<path fill="none" stroke="#34cb34" d="M400.89,-76C400.89,-76 375.15,-76 375.15,-76"/>
<polygon fill="#34cb34" stroke="#34cb34" points="375.15,-72.5 365.15,-76 375.15,-79.5 375.15,-72.5"/>
</g>
<!-- node_0x5030000000a0 -->
<g id="node3" class="node">
<title>node_0x5030000000a0</title>
<path fill="#9966ff" stroke="#ffe9c7" d="M814,-42.5C814,-42.5 1155,-42.5 1155,-42.5 1161,-42.5 1167,-48.5 1167,-54.5 1167,-54.5 1167,-122.5 1167,-122.5 1167,-128.5 1161,-134.5 1155,-134.5 1155,-134.5 814,-134.5 814,-134.5 808,-134.5 802,-128.5 802,-122.5 802,-122.5 802,-54.5 802,-54.5 802,-48.5 808,-42.5 814,-42.5"/>
<text text-anchor="middle" x="984.5" y="-119.3" font-family="Times,serif" font-size="14.00">num: 1</text>
<polyline fill="none" stroke="#ffe9c7" points="802,-111.5 1167,-111.5 "/>
<text text-anchor="middle" x="984.5" y="-96.3" font-family="Times,serif" font-size="14.00">data: 22.00</text>
<polyline fill="none" stroke="#ffe9c7" points="802,-88.5 1167,-88.5 "/>
<text text-anchor="middle" x="984.5" y="-73.3" font-family="Times,serif" font-size="14.00">curr: 0x5030000000a0</text>
<polyline fill="none" stroke="#ffe9c7" points="802,-65.5 1167,-65.5 "/>
<text text-anchor="middle" x="893.5" y="-50.3" font-family="Times,serif" font-size="14.00">prev: 0x503000000070</text>
<polyline fill="none" stroke="#ffe9c7" points="985,-42.5 985,-65.5 "/>
<text text-anchor="middle" x="1076" y="-50.3" font-family="Times,serif" font-size="14.00">next: 0x5030000000d0</text>
</g>
<!-- node_0x503000000070&#45;&gt;node_0x5030000000a0 -->
<g id="edge3" class="edge">
<title>node_0x503000000070&#45;&gt;node_0x5030000000a0</title>
<path fill="none" stroke="#ff6699" d="M766.11,-73C766.11,-73 791.85,-73 791.85,-73"/>
<polygon fill="#ff6699" stroke="#ff6699" points="791.85,-76.5 801.85,-73 791.85,-69.5 791.85,-76.5"/>
</g>
<!-- node_0x5030000000a0&#45;&gt;node_0x503000000070 -->
<g id="edge6" class="edge">
<title>node_0x5030000000a0&#45;&gt;node_0x503000000070</title>
<path fill="none" stroke="#34cb34" d="M801.89,-104C801.89,-104 776.15,-104 776.15,-104"/>
<polygon fill="#34cb34" stroke="#34cb34" points="776.15,-100.5 766.15,-104 776.15,-107.5 776.15,-100.5"/>
</g>
<!-- node_0x5030000000a0&#45;&gt;node_0x5030000000d0 -->
<g id="edge5" class="edge">
<title>node_0x5030000000a0&#45;&gt;node_0x5030000000d0</title>
<path fill="none" stroke="#ff6699" d="M1167.17,-59C1167.17,-59 1192.84,-59 1192.84,-59"/>
<polygon fill="#ff6699" stroke="#ff6699" points="1192.84,-62.5 1202.84,-59 1192.84,-55.5 1192.84,-62.5"/>
</g>
<!-- node_0x5030000000d0&#45;&gt;node_0x503000000040 -->
<g id="edge7" class="edge">
<title>node_0x5030000000d0&#45;&gt;node_0x503000000040</title>
<path fill="none" stroke="#ff6699" d="M1202.69,-28C1202.69,-28 375.48,-28 375.48,-28"/>
<polygon fill="#ff6699" stroke="#ff6699" points="375.48,-24.5 365.48,-28 375.48,-31.5 375.48,-24.5"/>
</g>
<!-- node_0x5030000000d0&#45;&gt;node_0x5030000000a0 -->
<g id="edge8" class="edge">
<title>node_0x5030000000d0&#45;&gt;node_0x5030000000a0</title>
<path fill="none" stroke="#34cb34" d="M1202.91,-76C1202.91,-76 1177.18,-76 1177.18,-76"/>
<polygon fill="#34cb34" stroke="#34cb34" points="1177.18,-72.5 1167.18,-76 1177.18,-79.5 1177.18,-72.5"/>
</g>
</g>
</svg>
